<?xml version="1.0" encoding="UTF-8" standalone="no"?>
<!DOCTYPE svg PUBLIC "-//W3C//DTD SVG 1.1//EN"
 "http://www.w3.org/Graphics/SVG/1.1/DTD/svg11.dtd">
<!-- Generated by graphviz version 2.42.4 (0)
 -->
<!-- Title: D21 Pages: 1 -->
<svg width="574pt" height="650pt"
 viewBox="0.00 0.00 574.00 650.00" xmlns="http://www.w3.org/2000/svg" xmlns:xlink="http://www.w3.org/1999/xlink">
<g id="graph0" class="graph" transform="scale(1 1) rotate(0) translate(18 632)">
<title>D21</title>
<polygon fill="white" stroke="transparent" points="-18,18 -18,-632 556,-632 556,18 -18,18"/>
<!-- w -->
<g id="node1" class="node">
<title>w</title>
<path fill="#e5f3ed" stroke="#536779" stroke-width="1.1" d="M183,-614C183,-614 39,-614 39,-614 33,-614 27,-608 27,-602 27,-602 27,-590 27,-590 27,-584 33,-578 39,-578 39,-578 183,-578 183,-578 189,-578 195,-584 195,-590 195,-590 195,-602 195,-602 195,-608 189,-614 183,-614"/>
<text text-anchor="middle" x="111" y="-592.9" font-family="DejaVu Sans" font-size="12.00">Workers / host exporter</text>
</g>
<!-- ob -->
<g id="node2" class="node">
<title>ob</title>
<path fill="#e9f3f8" stroke="#536779" stroke-width="1.1" d="M210,-529C210,-529 12,-529 12,-529 6,-529 0,-523 0,-517 0,-517 0,-497 0,-497 0,-491 6,-485 12,-485 12,-485 210,-485 210,-485 216,-485 222,-491 222,-497 222,-497 222,-517 222,-517 222,-523 216,-529 210,-529"/>
<text text-anchor="middle" x="111" y="-510.4" font-family="DejaVu Sans" font-size="12.00">Critical observer</text>
<text text-anchor="middle" x="111" y="-497.4" font-family="DejaVu Sans" font-size="12.00">Normalize + timestamp + epoch</text>
</g>
<!-- w&#45;&gt;ob -->
<g id="edge1" class="edge">
<title>w&#45;&gt;ob</title>
<path fill="none" stroke="#5b6f81" d="M111,-577.81C111,-566.03 111,-550.12 111,-536.47"/>
<polygon fill="#5b6f81" stroke="#5b6f81" points="113.45,-536.15 111,-529.15 108.55,-536.15 113.45,-536.15"/>
</g>
<!-- state -->
<g id="node3" class="node">
<title>state</title>
<path fill="#fff4db" stroke="#536779" stroke-width="1.1" d="M171,-436C171,-436 51,-436 51,-436 45,-436 39,-430 39,-424 39,-424 39,-404 39,-404 39,-398 45,-392 51,-392 51,-392 171,-392 171,-392 177,-392 183,-398 183,-404 183,-404 183,-424 183,-424 183,-430 177,-436 171,-436"/>
<text text-anchor="middle" x="111" y="-417.4" font-family="DejaVu Sans" font-size="12.00">Latest observations</text>
<text text-anchor="middle" x="111" y="-404.4" font-family="DejaVu Sans" font-size="12.00">Unknown != zero</text>
</g>
<!-- ob&#45;&gt;state -->
<g id="edge2" class="edge">
<title>ob&#45;&gt;state</title>
<path fill="none" stroke="#5b6f81" d="M111,-484.89C111,-472.58 111,-456.88 111,-443.48"/>
<polygon fill="#5b6f81" stroke="#5b6f81" points="113.45,-443.31 111,-436.31 108.55,-443.31 113.45,-443.31"/>
</g>
<!-- adm -->
<g id="node4" class="node">
<title>adm</title>
<path fill="#e9f3f8" stroke="#536779" stroke-width="1.1" d="M234,-133C234,-133 112,-133 112,-133 106,-133 100,-127 100,-121 100,-121 100,-109 100,-109 100,-103 106,-97 112,-97 112,-97 234,-97 234,-97 240,-97 246,-103 246,-109 246,-109 246,-121 246,-121 246,-127 240,-133 234,-133"/>
<text text-anchor="middle" x="173" y="-111.9" font-family="DejaVu Sans" font-size="12.00">Admission decisions</text>
</g>
<!-- state&#45;&gt;adm -->
<g id="edge3" class="edge">
<title>state&#45;&gt;adm</title>
<path fill="none" stroke="#5b6f81" d="M112.02,-391.7C114.31,-352.4 121.19,-266.12 140,-196 145.28,-176.32 154.23,-155.04 161.47,-139.38"/>
<polygon fill="#5b6f81" stroke="#5b6f81" points="163.7,-140.41 164.46,-133.03 159.26,-138.32 163.7,-140.41"/>
<text text-anchor="middle" x="163" y="-267" font-family="DejaVu Sans" font-size="10.00">Fresh evidence</text>
</g>
<!-- met -->
<g id="node6" class="node">
<title>met</title>
<path fill="#e9f3f8" stroke="#536779" stroke-width="1.1" d="M351.5,-343C351.5,-343 218.5,-343 218.5,-343 212.5,-343 206.5,-337 206.5,-331 206.5,-331 206.5,-311 206.5,-311 206.5,-305 212.5,-299 218.5,-299 218.5,-299 351.5,-299 351.5,-299 357.5,-299 363.5,-305 363.5,-311 363.5,-311 363.5,-331 363.5,-331 363.5,-337 357.5,-343 351.5,-343"/>
<text text-anchor="middle" x="285" y="-324.4" font-family="DejaVu Sans" font-size="12.00">Metrics / traces</text>
<text text-anchor="middle" x="285" y="-311.4" font-family="DejaVu Sans" font-size="12.00">No raw content labels</text>
</g>
<!-- state&#45;&gt;met -->
<g id="edge5" class="edge">
<title>state&#45;&gt;met</title>
<path fill="none" stroke="#5b6f81" d="M151.36,-391.89C177.29,-378.33 211.07,-360.67 238.18,-346.49"/>
<polygon fill="#5b6f81" stroke="#5b6f81" points="239.49,-348.56 244.56,-343.15 237.22,-344.22 239.49,-348.56"/>
</g>
<!-- aud -->
<g id="node10" class="node">
<title>aud</title>
<path fill="#fff4db" stroke="#536779" stroke-width="1.1" d="M234.5,-44C234.5,-44 111.5,-44 111.5,-44 105.5,-44 99.5,-38 99.5,-32 99.5,-32 99.5,-12 99.5,-12 99.5,-6 105.5,0 111.5,0 111.5,0 234.5,0 234.5,0 240.5,0 246.5,-6 246.5,-12 246.5,-12 246.5,-32 246.5,-32 246.5,-38 240.5,-44 234.5,-44"/>
<text text-anchor="middle" x="173" y="-25.4" font-family="DejaVu Sans" font-size="12.00">Audit ledger</text>
<text text-anchor="middle" x="173" y="-12.4" font-family="DejaVu Sans" font-size="12.00">Redacted mutations</text>
</g>
<!-- adm&#45;&gt;aud -->
<g id="edge9" class="edge">
<title>adm&#45;&gt;aud</title>
<path fill="none" stroke="#5b6f81" d="M173,-96.88C173,-84.05 173,-66.21 173,-51.27"/>
<polygon fill="#5b6f81" stroke="#5b6f81" points="175.45,-51.2 173,-44.2 170.55,-51.2 175.45,-51.2"/>
</g>
<!-- inv -->
<g id="node5" class="node">
<title>inv</title>
<path fill="#fff4db" stroke="#536779" stroke-width="1.1" d="M369.5,-432C369.5,-432 224.5,-432 224.5,-432 218.5,-432 212.5,-426 212.5,-420 212.5,-420 212.5,-408 212.5,-408 212.5,-402 218.5,-396 224.5,-396 224.5,-396 369.5,-396 369.5,-396 375.5,-396 381.5,-402 381.5,-408 381.5,-408 381.5,-420 381.5,-420 381.5,-426 375.5,-432 369.5,-432"/>
<text text-anchor="middle" x="297" y="-410.9" font-family="DejaVu Sans" font-size="12.00">Invocation / job receipts</text>
</g>
<!-- inv&#45;&gt;met -->
<g id="edge4" class="edge">
<title>inv&#45;&gt;met</title>
<path fill="none" stroke="#5b6f81" d="M294.74,-395.88C293.05,-383.05 290.7,-365.21 288.73,-350.27"/>
<polygon fill="#5b6f81" stroke="#5b6f81" points="291.14,-349.82 287.8,-343.2 286.28,-350.46 291.14,-349.82"/>
</g>
<!-- ui -->
<g id="node7" class="node">
<title>ui</title>
<path fill="#f0f1f3" stroke="#536779" stroke-width="1.1" d="M329,-236C329,-236 167,-236 167,-236 161,-236 155,-230 155,-224 155,-224 155,-212 155,-212 155,-206 161,-200 167,-200 167,-200 329,-200 329,-200 335,-200 341,-206 341,-212 341,-212 341,-224 341,-224 341,-230 335,-236 329,-236"/>
<text text-anchor="middle" x="248" y="-214.9" font-family="DejaVu Sans" font-size="12.00">Console / optional Grafana</text>
</g>
<!-- met&#45;&gt;ui -->
<g id="edge6" class="edge">
<title>met&#45;&gt;ui</title>
<path fill="none" stroke="#5b6f81" d="M277.15,-298.58C271.18,-282.27 262.95,-259.81 256.76,-242.91"/>
<polygon fill="#5b6f81" stroke="#5b6f81" points="258.95,-241.77 254.24,-236.04 254.35,-243.46 258.95,-241.77"/>
<text text-anchor="middle" x="293" y="-267" font-family="DejaVu Sans" font-size="10.00">Read&#45;only</text>
</g>
<!-- al -->
<g id="node8" class="node">
<title>al</title>
<path fill="#e9f3f8" stroke="#536779" stroke-width="1.1" d="M492,-240C492,-240 382,-240 382,-240 376,-240 370,-234 370,-228 370,-228 370,-208 370,-208 370,-202 376,-196 382,-196 382,-196 492,-196 492,-196 498,-196 504,-202 504,-208 504,-208 504,-228 504,-228 504,-234 498,-240 492,-240"/>
<text text-anchor="middle" x="437" y="-221.4" font-family="DejaVu Sans" font-size="12.00">Alert rules</text>
<text text-anchor="middle" x="437" y="-208.4" font-family="DejaVu Sans" font-size="12.00">Dedup / cooldown</text>
</g>
<!-- met&#45;&gt;al -->
<g id="edge7" class="edge">
<title>met&#45;&gt;al</title>
<path fill="none" stroke="#5b6f81" d="M316.86,-298.83C340.88,-282.87 373.9,-260.93 399.24,-244.09"/>
<polygon fill="#5b6f81" stroke="#5b6f81" points="400.7,-246.06 405.18,-240.15 397.99,-241.98 400.7,-246.06"/>
</g>
<!-- ui&#45;&gt;adm -->
<g id="edge10" class="edge">
<title>ui&#45;&gt;adm</title>
<path fill="none" stroke="#5b6f81" stroke-dasharray="5,2" d="M235.28,-199.87C222.89,-183.18 203.96,-157.7 190.23,-139.2"/>
<polygon fill="#5b6f81" stroke="#5b6f81" points="191.93,-137.38 185.79,-133.22 187.99,-140.3 191.93,-137.38"/>
<text text-anchor="middle" x="290" y="-164" font-family="DejaVu Sans" font-size="10.00">Explicit authorized actions only</text>
</g>
<!-- dest -->
<g id="node9" class="node">
<title>dest</title>
<path fill="#f0f1f3" stroke="#536779" stroke-width="1.1" d="M526,-137C526,-137 348,-137 348,-137 342,-137 336,-131 336,-125 336,-125 336,-105 336,-105 336,-99 342,-93 348,-93 348,-93 526,-93 526,-93 532,-93 538,-99 538,-105 538,-105 538,-125 538,-125 538,-131 532,-137 526,-137"/>
<text text-anchor="middle" x="437" y="-118.4" font-family="DejaVu Sans" font-size="12.00">Notification destination</text>
<text text-anchor="middle" x="437" y="-105.4" font-family="DejaVu Sans" font-size="12.00">Configured / failed / delivered</text>
</g>
<!-- al&#45;&gt;dest -->
<g id="edge8" class="edge">
<title>al&#45;&gt;dest</title>
<path fill="none" stroke="#5b6f81" d="M437,-195.58C437,-180.62 437,-160.48 437,-144.21"/>
<polygon fill="#5b6f81" stroke="#5b6f81" points="439.45,-144.04 437,-137.04 434.55,-144.04 439.45,-144.04"/>
</g>
</g>
</svg>
